<?xml version="1.0" encoding="UTF-8" standalone="no"?>
<!DOCTYPE svg PUBLIC "-//W3C//DTD SVG 1.1//EN"
 "http://www.w3.org/Graphics/SVG/1.1/DTD/svg11.dtd">
<!-- Generated by graphviz version 2.43.0 (0)
 -->
<!-- Title: %3 Pages: 1 -->
<svg width="1800pt" height="476pt"
 viewBox="0.00 0.00 1799.50 476.00" xmlns="http://www.w3.org/2000/svg" xmlns:xlink="http://www.w3.org/1999/xlink">
<g id="graph0" class="graph" transform="scale(1 1) rotate(0) translate(4 472)">
<title>%3</title>
<polygon fill="white" stroke="transparent" points="-4,4 -4,-472 1795.5,-472 1795.5,4 -4,4"/>
<!-- [root] aws_internet_gateway.igw -->
<g id="node1" class="node">
<title>[root] aws_internet_gateway.igw</title>
<polygon fill="none" stroke="black" points="540,-180 337,-180 337,-144 540,-144 540,-180"/>
<text text-anchor="middle" x="438.5" y="-158.3" font-family="Times,serif" font-size="14.00">aws_internet_gateway.igw</text>
</g>
<!-- [root] aws_vpc.my&#45;vpc -->
<g id="node14" class="node">
<title>[root] aws_vpc.my&#45;vpc</title>
<polygon fill="none" stroke="black" points="888,-108 757,-108 757,-72 888,-72 888,-108"/>
<text text-anchor="middle" x="822.5" y="-86.3" font-family="Times,serif" font-size="14.00">aws_vpc.my&#45;vpc</text>
</g>
<!-- [root] aws_internet_gateway.igw&#45;&gt;[root] aws_vpc.my&#45;vpc -->
<g id="edge1" class="edge">
<title>[root] aws_internet_gateway.igw&#45;&gt;[root] aws_vpc.my&#45;vpc</title>
<path fill="none" stroke="black" d="M531.95,-143.97C597.87,-131.95 685.07,-116.05 746.68,-104.82"/>
<polygon fill="black" stroke="black" points="747.52,-108.23 756.73,-102.99 746.26,-101.34 747.52,-108.23"/>
</g>
<!-- [root] aws_route_table.web&#45;rt -->
<g id="node2" class="node">
<title>[root] aws_route_table.web&#45;rt</title>
<polygon fill="none" stroke="black" points="368,-252 185,-252 185,-216 368,-216 368,-252"/>
<text text-anchor="middle" x="276.5" y="-230.3" font-family="Times,serif" font-size="14.00">aws_route_table.web&#45;rt</text>
</g>
<!-- [root] aws_route_table.web&#45;rt&#45;&gt;[root] aws_internet_gateway.igw -->
<g id="edge2" class="edge">
<title>[root] aws_route_table.web&#45;rt&#45;&gt;[root] aws_internet_gateway.igw</title>
<path fill="none" stroke="black" d="M316.13,-215.88C338.28,-206.31 366.06,-194.3 389.56,-184.15"/>
<polygon fill="black" stroke="black" points="391.21,-187.25 399,-180.07 388.43,-180.82 391.21,-187.25"/>
</g>
<!-- [root] aws_route_table_association.a -->
<g id="node3" class="node">
<title>[root] aws_route_table_association.a</title>
<polygon fill="none" stroke="black" points="231,-324 0,-324 0,-288 231,-288 231,-324"/>
<text text-anchor="middle" x="115.5" y="-302.3" font-family="Times,serif" font-size="14.00">aws_route_table_association.a</text>
</g>
<!-- [root] aws_route_table_association.a&#45;&gt;[root] aws_route_table.web&#45;rt -->
<g id="edge3" class="edge">
<title>[root] aws_route_table_association.a&#45;&gt;[root] aws_route_table.web&#45;rt</title>
<path fill="none" stroke="black" d="M154.89,-287.88C176.89,-278.31 204.51,-266.3 227.86,-256.15"/>
<polygon fill="black" stroke="black" points="229.47,-259.27 237.24,-252.07 226.68,-252.85 229.47,-259.27"/>
</g>
<!-- [root] aws_subnet.web&#45;subnet&#45;1 -->
<g id="node12" class="node">
<title>[root] aws_subnet.web&#45;subnet&#45;1</title>
<polygon fill="none" stroke="black" points="262.5,-180 62.5,-180 62.5,-144 262.5,-144 262.5,-180"/>
<text text-anchor="middle" x="162.5" y="-158.3" font-family="Times,serif" font-size="14.00">aws_subnet.web&#45;subnet&#45;1</text>
</g>
<!-- [root] aws_route_table_association.a&#45;&gt;[root] aws_subnet.web&#45;subnet&#45;1 -->
<g id="edge4" class="edge">
<title>[root] aws_route_table_association.a&#45;&gt;[root] aws_subnet.web&#45;subnet&#45;1</title>
<path fill="none" stroke="black" d="M121.17,-287.87C129.21,-263.56 144.02,-218.82 153.56,-190.01"/>
<polygon fill="black" stroke="black" points="156.99,-190.78 156.81,-180.19 150.35,-188.58 156.99,-190.78"/>
</g>
<!-- [root] aws_route_table_association.b -->
<g id="node4" class="node">
<title>[root] aws_route_table_association.b</title>
<polygon fill="none" stroke="black" points="481.5,-324 249.5,-324 249.5,-288 481.5,-288 481.5,-324"/>
<text text-anchor="middle" x="365.5" y="-302.3" font-family="Times,serif" font-size="14.00">aws_route_table_association.b</text>
</g>
<!-- [root] aws_route_table_association.b&#45;&gt;[root] aws_route_table.web&#45;rt -->
<g id="edge5" class="edge">
<title>[root] aws_route_table_association.b&#45;&gt;[root] aws_route_table.web&#45;rt</title>
<path fill="none" stroke="black" d="M343.5,-287.7C332.29,-278.88 318.5,-268.03 306.35,-258.47"/>
<polygon fill="black" stroke="black" points="308.27,-255.54 298.25,-252.1 303.94,-261.04 308.27,-255.54"/>
</g>
<!-- [root] aws_subnet.web&#45;subnet&#45;2 -->
<g id="node13" class="node">
<title>[root] aws_subnet.web&#45;subnet&#45;2</title>
<polygon fill="none" stroke="black" points="586.5,-252 386.5,-252 386.5,-216 586.5,-216 586.5,-252"/>
<text text-anchor="middle" x="486.5" y="-230.3" font-family="Times,serif" font-size="14.00">aws_subnet.web&#45;subnet&#45;2</text>
</g>
<!-- [root] aws_route_table_association.b&#45;&gt;[root] aws_subnet.web&#45;subnet&#45;2 -->
<g id="edge6" class="edge">
<title>[root] aws_route_table_association.b&#45;&gt;[root] aws_subnet.web&#45;subnet&#45;2</title>
<path fill="none" stroke="black" d="M395.1,-287.88C411.07,-278.64 430.96,-267.13 448.11,-257.21"/>
<polygon fill="black" stroke="black" points="449.88,-260.23 456.79,-252.19 446.38,-254.17 449.88,-260.23"/>
</g>
<!-- [root] aws_security_group.database&#45;sg -->
<g id="node5" class="node">
<title>[root] aws_security_group.database&#45;sg</title>
<polygon fill="none" stroke="black" points="747.5,-324 499.5,-324 499.5,-288 747.5,-288 747.5,-324"/>
<text text-anchor="middle" x="623.5" y="-302.3" font-family="Times,serif" font-size="14.00">aws_security_group.database&#45;sg</text>
</g>
<!-- [root] aws_security_group.webserver&#45;sg -->
<g id="node7" class="node">
<title>[root] aws_security_group.webserver&#45;sg</title>
<polygon fill="none" stroke="black" points="862.5,-252 604.5,-252 604.5,-216 862.5,-216 862.5,-252"/>
<text text-anchor="middle" x="733.5" y="-230.3" font-family="Times,serif" font-size="14.00">aws_security_group.webserver&#45;sg</text>
</g>
<!-- [root] aws_security_group.database&#45;sg&#45;&gt;[root] aws_security_group.webserver&#45;sg -->
<g id="edge7" class="edge">
<title>[root] aws_security_group.database&#45;sg&#45;&gt;[root] aws_security_group.webserver&#45;sg</title>
<path fill="none" stroke="black" d="M650.41,-287.88C664.66,-278.81 682.35,-267.55 697.74,-257.76"/>
<polygon fill="black" stroke="black" points="699.93,-260.51 706.49,-252.19 696.17,-254.61 699.93,-260.51"/>
</g>
<!-- [root] aws_security_group.web&#45;sg -->
<g id="node6" class="node">
<title>[root] aws_security_group.web&#45;sg</title>
<polygon fill="none" stroke="black" points="850.5,-180 638.5,-180 638.5,-144 850.5,-144 850.5,-180"/>
<text text-anchor="middle" x="744.5" y="-158.3" font-family="Times,serif" font-size="14.00">aws_security_group.web&#45;sg</text>
</g>
<!-- [root] aws_security_group.web&#45;sg&#45;&gt;[root] aws_vpc.my&#45;vpc -->
<g id="edge8" class="edge">
<title>[root] aws_security_group.web&#45;sg&#45;&gt;[root] aws_vpc.my&#45;vpc</title>
<path fill="none" stroke="black" d="M763.78,-143.7C773.42,-135.05 785.23,-124.45 795.73,-115.03"/>
<polygon fill="black" stroke="black" points="798.34,-117.39 803.44,-108.1 793.66,-112.18 798.34,-117.39"/>
</g>
<!-- [root] aws_security_group.webserver&#45;sg&#45;&gt;[root] aws_security_group.web&#45;sg -->
<g id="edge9" class="edge">
<title>[root] aws_security_group.webserver&#45;sg&#45;&gt;[root] aws_security_group.web&#45;sg</title>
<path fill="none" stroke="black" d="M736.22,-215.7C737.43,-207.98 738.89,-198.71 740.24,-190.11"/>
<polygon fill="black" stroke="black" points="743.72,-190.53 741.81,-180.1 736.8,-189.44 743.72,-190.53"/>
</g>
<!-- [root] aws_subnet.application&#45;subnet&#45;1 -->
<g id="node8" class="node">
<title>[root] aws_subnet.application&#45;subnet&#45;1</title>
<polygon fill="none" stroke="black" points="1015.5,-324 765.5,-324 765.5,-288 1015.5,-288 1015.5,-324"/>
<text text-anchor="middle" x="890.5" y="-302.3" font-family="Times,serif" font-size="14.00">aws_subnet.application&#45;subnet&#45;1</text>
</g>
<!-- [root] aws_subnet.application&#45;subnet&#45;1&#45;&gt;[root] aws_vpc.my&#45;vpc -->
<g id="edge10" class="edge">
<title>[root] aws_subnet.application&#45;subnet&#45;1&#45;&gt;[root] aws_vpc.my&#45;vpc</title>
<path fill="none" stroke="black" d="M889.54,-287.87C887.36,-257.69 880.44,-193.56 859.5,-144 855.41,-134.33 849.38,-124.66 843.36,-116.27"/>
<polygon fill="black" stroke="black" points="845.98,-113.93 837.18,-108.05 840.39,-118.14 845.98,-113.93"/>
</g>
<!-- [root] aws_subnet.application&#45;subnet&#45;2 -->
<g id="node9" class="node">
<title>[root] aws_subnet.application&#45;subnet&#45;2</title>
<polygon fill="none" stroke="black" points="1283.5,-324 1033.5,-324 1033.5,-288 1283.5,-288 1283.5,-324"/>
<text text-anchor="middle" x="1158.5" y="-302.3" font-family="Times,serif" font-size="14.00">aws_subnet.application&#45;subnet&#45;2</text>
</g>
<!-- [root] aws_subnet.application&#45;subnet&#45;2&#45;&gt;[root] aws_vpc.my&#45;vpc -->
<g id="edge11" class="edge">
<title>[root] aws_subnet.application&#45;subnet&#45;2&#45;&gt;[root] aws_vpc.my&#45;vpc</title>
<path fill="none" stroke="black" d="M1131.57,-287.85C1071.36,-249.5 925.84,-156.82 858.18,-113.73"/>
<polygon fill="black" stroke="black" points="859.87,-110.65 849.56,-108.23 856.11,-116.56 859.87,-110.65"/>
</g>
<!-- [root] aws_subnet.database&#45;subnet&#45;1 -->
<g id="node10" class="node">
<title>[root] aws_subnet.database&#45;subnet&#45;1</title>
<polygon fill="none" stroke="black" points="1537.5,-324 1301.5,-324 1301.5,-288 1537.5,-288 1537.5,-324"/>
<text text-anchor="middle" x="1419.5" y="-302.3" font-family="Times,serif" font-size="14.00">aws_subnet.database&#45;subnet&#45;1</text>
</g>
<!-- [root] aws_subnet.database&#45;subnet&#45;1&#45;&gt;[root] aws_vpc.my&#45;vpc -->
<g id="edge12" class="edge">
<title>[root] aws_subnet.database&#45;subnet&#45;1&#45;&gt;[root] aws_vpc.my&#45;vpc</title>
<path fill="none" stroke="black" d="M1371.91,-287.94C1263.22,-248.98 997.15,-153.6 879.75,-111.52"/>
<polygon fill="black" stroke="black" points="880.81,-108.18 870.21,-108.1 878.44,-114.77 880.81,-108.18"/>
</g>
<!-- [root] aws_subnet.database&#45;subnet&#45;2 -->
<g id="node11" class="node">
<title>[root] aws_subnet.database&#45;subnet&#45;2</title>
<polygon fill="none" stroke="black" points="1791.5,-324 1555.5,-324 1555.5,-288 1791.5,-288 1791.5,-324"/>
<text text-anchor="middle" x="1673.5" y="-302.3" font-family="Times,serif" font-size="14.00">aws_subnet.database&#45;subnet&#45;2</text>
</g>
<!-- [root] aws_subnet.database&#45;subnet&#45;2&#45;&gt;[root] aws_vpc.my&#45;vpc -->
<g id="edge13" class="edge">
<title>[root] aws_subnet.database&#45;subnet&#45;2&#45;&gt;[root] aws_vpc.my&#45;vpc</title>
<path fill="none" stroke="black" d="M1606,-287.89C1489.59,-258.4 1243.55,-196.13 1035.5,-144 989.91,-132.58 938.81,-119.86 898.09,-109.75"/>
<polygon fill="black" stroke="black" points="898.79,-106.31 888.24,-107.3 897.1,-113.11 898.79,-106.31"/>
</g>
<!-- [root] aws_subnet.web&#45;subnet&#45;1&#45;&gt;[root] aws_vpc.my&#45;vpc -->
<g id="edge14" class="edge">
<title>[root] aws_subnet.web&#45;subnet&#45;1&#45;&gt;[root] aws_vpc.my&#45;vpc</title>
<path fill="none" stroke="black" d="M262.74,-150.37C395.72,-136.26 627.5,-111.68 746.8,-99.03"/>
<polygon fill="black" stroke="black" points="747.36,-102.49 756.93,-97.95 746.62,-95.53 747.36,-102.49"/>
</g>
<!-- [root] aws_subnet.web&#45;subnet&#45;2&#45;&gt;[root] aws_vpc.my&#45;vpc -->
<g id="edge15" class="edge">
<title>[root] aws_subnet.web&#45;subnet&#45;2&#45;&gt;[root] aws_vpc.my&#45;vpc</title>
<path fill="none" stroke="black" d="M509.62,-215.66C536.97,-195.86 584.49,-163.69 629.5,-144 666.75,-127.71 710.26,-115.24 746.53,-106.5"/>
<polygon fill="black" stroke="black" points="747.63,-109.83 756.56,-104.13 746.02,-103.02 747.63,-109.83"/>
</g>
<!-- [root] provider.aws -->
<g id="node15" class="node">
<title>[root] provider.aws</title>
<polygon fill="none" stroke="black" points="747.5,-36 648.46,-18 747.5,0 846.54,-18 747.5,-36"/>
<text text-anchor="middle" x="747.5" y="-14.3" font-family="Times,serif" font-size="14.00">provider.aws</text>
</g>
<!-- [root] aws_vpc.my&#45;vpc&#45;&gt;[root] provider.aws -->
<g id="edge16" class="edge">
<title>[root] aws_vpc.my&#45;vpc&#45;&gt;[root] provider.aws</title>
<path fill="none" stroke="black" d="M803.96,-71.7C793.77,-62.18 781.04,-50.3 770.25,-40.23"/>
<polygon fill="black" stroke="black" points="772.5,-37.54 762.8,-33.28 767.72,-42.66 772.5,-37.54"/>
</g>
<!-- [root] var.vpc -->
<g id="node16" class="node">
<title>[root] var.vpc</title>
<polygon fill="none" stroke="black" points="926.5,-36 864.5,-36 864.5,0 932.5,0 932.5,-30 926.5,-36"/>
<polyline fill="none" stroke="black" points="926.5,-36 926.5,-30 "/>
<polyline fill="none" stroke="black" points="932.5,-30 926.5,-30 "/>
<text text-anchor="middle" x="898.5" y="-14.3" font-family="Times,serif" font-size="14.00">var.vpc</text>
</g>
<!-- [root] aws_vpc.my&#45;vpc&#45;&gt;[root] var.vpc -->
<g id="edge17" class="edge">
<title>[root] aws_vpc.my&#45;vpc&#45;&gt;[root] var.vpc</title>
<path fill="none" stroke="black" d="M841.29,-71.7C850.67,-63.05 862.18,-52.45 872.41,-43.03"/>
<polygon fill="black" stroke="black" points="874.95,-45.45 879.93,-36.1 870.2,-40.3 874.95,-45.45"/>
</g>
<!-- [root] meta.count&#45;boundary (EachMode fixup) -->
<g id="node17" class="node">
<title>[root] meta.count&#45;boundary (EachMode fixup)</title>
<ellipse fill="none" stroke="black" cx="704.5" cy="-378" rx="222.86" ry="18"/>
<text text-anchor="middle" x="704.5" y="-374.3" font-family="Times,serif" font-size="14.00">[root] meta.count&#45;boundary (EachMode fixup)</text>
</g>
<!-- [root] meta.count&#45;boundary (EachMode fixup)&#45;&gt;[root] aws_route_table_association.a -->
<g id="edge18" class="edge">
<title>[root] meta.count&#45;boundary (EachMode fixup)&#45;&gt;[root] aws_route_table_association.a</title>
<path fill="none" stroke="black" d="M576.89,-363.17C486.18,-353.16 361.19,-339.01 241.36,-324.09"/>
<polygon fill="black" stroke="black" points="241.62,-320.6 231.26,-322.83 240.75,-327.54 241.62,-320.6"/>
</g>
<!-- [root] meta.count&#45;boundary (EachMode fixup)&#45;&gt;[root] aws_route_table_association.b -->
<g id="edge19" class="edge">
<title>[root] meta.count&#45;boundary (EachMode fixup)&#45;&gt;[root] aws_route_table_association.b</title>
<path fill="none" stroke="black" d="M627.15,-361.03C576.85,-350.64 510.99,-337.04 457.93,-326.09"/>
<polygon fill="black" stroke="black" points="458.34,-322.6 447.84,-324 456.93,-329.45 458.34,-322.6"/>
</g>
<!-- [root] meta.count&#45;boundary (EachMode fixup)&#45;&gt;[root] aws_security_group.database&#45;sg -->
<g id="edge20" class="edge">
<title>[root] meta.count&#45;boundary (EachMode fixup)&#45;&gt;[root] aws_security_group.database&#45;sg</title>
<path fill="none" stroke="black" d="M684.89,-360.05C674.72,-351.26 662.13,-340.38 651,-330.76"/>
<polygon fill="black" stroke="black" points="653.06,-327.92 643.21,-324.03 648.49,-333.22 653.06,-327.92"/>
</g>
<!-- [root] meta.count&#45;boundary (EachMode fixup)&#45;&gt;[root] aws_subnet.application&#45;subnet&#45;1 -->
<g id="edge21" class="edge">
<title>[root] meta.count&#45;boundary (EachMode fixup)&#45;&gt;[root] aws_subnet.application&#45;subnet&#45;1</title>
<path fill="none" stroke="black" d="M749.05,-360.23C775.01,-350.46 807.95,-338.07 835.52,-327.69"/>
<polygon fill="black" stroke="black" points="836.89,-330.91 845.02,-324.12 834.43,-324.36 836.89,-330.91"/>
</g>
<!-- [root] meta.count&#45;boundary (EachMode fixup)&#45;&gt;[root] aws_subnet.application&#45;subnet&#45;2 -->
<g id="edge22" class="edge">
<title>[root] meta.count&#45;boundary (EachMode fixup)&#45;&gt;[root] aws_subnet.application&#45;subnet&#45;2</title>
<path fill="none" stroke="black" d="M803.01,-361.81C872.01,-351.17 964.61,-336.89 1038.01,-325.58"/>
<polygon fill="black" stroke="black" points="1038.88,-328.98 1048.23,-324 1037.82,-322.07 1038.88,-328.98"/>
</g>
<!-- [root] meta.count&#45;boundary (EachMode fixup)&#45;&gt;[root] aws_subnet.database&#45;subnet&#45;1 -->
<g id="edge23" class="edge">
<title>[root] meta.count&#45;boundary (EachMode fixup)&#45;&gt;[root] aws_subnet.database&#45;subnet&#45;1</title>
<path fill="none" stroke="black" d="M858.51,-364.95C974.68,-355.42 1138.23,-341.09 1291.16,-324.12"/>
<polygon fill="black" stroke="black" points="1291.67,-327.59 1301.22,-323 1290.89,-320.63 1291.67,-327.59"/>
</g>
<!-- [root] meta.count&#45;boundary (EachMode fixup)&#45;&gt;[root] aws_subnet.database&#45;subnet&#45;2 -->
<g id="edge24" class="edge">
<title>[root] meta.count&#45;boundary (EachMode fixup)&#45;&gt;[root] aws_subnet.database&#45;subnet&#45;2</title>
<path fill="none" stroke="black" d="M861.41,-365.2C886.52,-363.4 912.22,-361.61 936.5,-360 1204.18,-342.29 1274.46,-349.84 1545.1,-324.09"/>
<polygon fill="black" stroke="black" points="1545.61,-327.56 1555.23,-323.12 1544.94,-320.59 1545.61,-327.56"/>
</g>
<!-- [root] provider.aws (close) -->
<g id="node18" class="node">
<title>[root] provider.aws (close)</title>
<ellipse fill="none" stroke="black" cx="1077.5" cy="-378" rx="131.88" ry="18"/>
<text text-anchor="middle" x="1077.5" y="-374.3" font-family="Times,serif" font-size="14.00">[root] provider.aws (close)</text>
</g>
<!-- [root] provider.aws (close)&#45;&gt;[root] aws_route_table_association.a -->
<g id="edge25" class="edge">
<title>[root] provider.aws (close)&#45;&gt;[root] aws_route_table_association.a</title>
<path fill="none" stroke="black" d="M985.82,-365.03C969.42,-363.15 952.47,-361.37 936.5,-360 631.21,-333.73 550.62,-352.48 241.39,-324.03"/>
<polygon fill="black" stroke="black" points="241.52,-320.53 231.24,-323.09 240.87,-327.5 241.52,-320.53"/>
</g>
<!-- [root] provider.aws (close)&#45;&gt;[root] aws_route_table_association.b -->
<g id="edge26" class="edge">
<title>[root] provider.aws (close)&#45;&gt;[root] aws_route_table_association.b</title>
<path fill="none" stroke="black" d="M984.27,-365.23C968.34,-363.37 951.96,-361.55 936.5,-360 741.92,-340.42 689.93,-345.24 491.74,-324.1"/>
<polygon fill="black" stroke="black" points="491.9,-320.6 481.58,-323.01 491.15,-327.56 491.9,-320.6"/>
</g>
<!-- [root] provider.aws (close)&#45;&gt;[root] aws_security_group.database&#45;sg -->
<g id="edge27" class="edge">
<title>[root] provider.aws (close)&#45;&gt;[root] aws_security_group.database&#45;sg</title>
<path fill="none" stroke="black" d="M993.7,-364.08C923.55,-353.26 822.57,-337.69 743.78,-325.55"/>
<polygon fill="black" stroke="black" points="744.22,-322.07 733.8,-324.01 743.15,-328.99 744.22,-322.07"/>
</g>
<!-- [root] provider.aws (close)&#45;&gt;[root] aws_subnet.application&#45;subnet&#45;1 -->
<g id="edge28" class="edge">
<title>[root] provider.aws (close)&#45;&gt;[root] aws_subnet.application&#45;subnet&#45;1</title>
<path fill="none" stroke="black" d="M1034.6,-360.94C1008.15,-351.04 973.97,-338.25 945.54,-327.6"/>
<polygon fill="black" stroke="black" points="946.73,-324.31 936.14,-324.08 944.28,-330.87 946.73,-324.31"/>
</g>
<!-- [root] provider.aws (close)&#45;&gt;[root] aws_subnet.application&#45;subnet&#45;2 -->
<g id="edge29" class="edge">
<title>[root] provider.aws (close)&#45;&gt;[root] aws_subnet.application&#45;subnet&#45;2</title>
<path fill="none" stroke="black" d="M1097.11,-360.05C1107.28,-351.26 1119.87,-340.38 1131,-330.76"/>
<polygon fill="black" stroke="black" points="1133.51,-333.22 1138.79,-324.03 1128.94,-327.92 1133.51,-333.22"/>
</g>
<!-- [root] provider.aws (close)&#45;&gt;[root] aws_subnet.database&#45;subnet&#45;1 -->
<g id="edge30" class="edge">
<title>[root] provider.aws (close)&#45;&gt;[root] aws_subnet.database&#45;subnet&#45;1</title>
<path fill="none" stroke="black" d="M1147.53,-362.67C1199.15,-352.1 1269.9,-337.62 1326.29,-326.08"/>
<polygon fill="black" stroke="black" points="1327.19,-329.47 1336.29,-324.03 1325.79,-322.61 1327.19,-329.47"/>
</g>
<!-- [root] provider.aws (close)&#45;&gt;[root] aws_subnet.database&#45;subnet&#45;2 -->
<g id="edge31" class="edge">
<title>[root] provider.aws (close)&#45;&gt;[root] aws_subnet.database&#45;subnet&#45;2</title>
<path fill="none" stroke="black" d="M1177.75,-366.27C1270.44,-356.22 1412.3,-340.47 1545.24,-324.14"/>
<polygon fill="black" stroke="black" points="1545.71,-327.61 1555.21,-322.92 1544.85,-320.66 1545.71,-327.61"/>
</g>
<!-- [root] root -->
<g id="node19" class="node">
<title>[root] root</title>
<ellipse fill="none" stroke="black" cx="890.5" cy="-450" rx="58.49" ry="18"/>
<text text-anchor="middle" x="890.5" y="-446.3" font-family="Times,serif" font-size="14.00">[root] root</text>
</g>
<!-- [root] root&#45;&gt;[root] meta.count&#45;boundary (EachMode fixup) -->
<g id="edge32" class="edge">
<title>[root] root&#45;&gt;[root] meta.count&#45;boundary (EachMode fixup)</title>
<path fill="none" stroke="black" d="M855.08,-435.67C827.76,-425.39 789.51,-410.99 758.4,-399.29"/>
<polygon fill="black" stroke="black" points="759.59,-395.99 748.99,-395.75 757.12,-402.54 759.59,-395.99"/>
</g>
<!-- [root] root&#45;&gt;[root] provider.aws (close) -->
<g id="edge33" class="edge">
<title>[root] root&#45;&gt;[root] provider.aws (close)</title>
<path fill="none" stroke="black" d="M926.11,-435.67C954.06,-425.21 993.38,-410.49 1024.94,-398.67"/>
<polygon fill="black" stroke="black" points="1026.33,-401.89 1034.47,-395.11 1023.88,-395.34 1026.33,-401.89"/>
</g>
</g>
</svg>
